<svg xmlns="http://www.w3.org/2000/svg" width="192" height="192" viewBox="0 0 192 192">
  <rect width="192" height="192" rx="40" fill="#00a884"/>
  <path d="M96 28c-37.6 0-68 30.4-68 68 0 12 3.1 23.6 9 33.9L28 164l34.7-9.1C72.4 160.9 83.8 164 96 164c37.6 0 68-30.4 68-68S133.6 28 96 28zm0 122.4c-10.6 0-20.8-2.8-29.8-8.1l-2.1-1.3-21.9 5.7 5.8-21.4-1.4-2.2c-5.8-9.3-8.9-20-8.9-31.1 0-30 24.4-54.4 54.4-54.4 14.5 0 28.2 5.7 38.5 16s16 23.9 15.9 38.4C146.4 122 122 146.4 96 146.4z" fill="white"/>
  <path d="M123.2 107.8c-1.5-.7-8.8-4.3-10.1-4.8-1.4-.5-2.4-.7-3.4.7-1 1.5-3.8 4.8-4.7 5.8-.9 1-1.7 1.1-3.2.4-1.5-.7-6.3-2.3-11.9-7.3-4.4-3.9-7.4-8.8-8.3-10.2-.9-1.5-.1-2.3.6-3 .7-.7 1.5-1.7 2.2-2.6.7-.9 1-1.5 1.5-2.5.5-1 .2-1.9-.1-2.6-.3-.7-3.3-8-4.6-11-1.2-2.9-2.4-2.5-3.3-2.5-.9 0-1.9-.1-2.8-.1-1 0-2.6.4-4 1.9-1.4 1.5-5.2 5.1-5.2 12.3 0 7.3 5.3 14.3 6.1 15.3.7 1 10.5 16 25.4 22.4 3.5 1.5 6.3 2.4 8.5 3.1 3.5 1.1 6.8 1 9.3.6 2.8-.4 8.8-3.6 10-7.1 1.2-3.5 1.2-6.4.9-7-.4-.6-1.4-1-2.9-1.7z" fill="white"/>
</svg>
